<?xml version="1.0" encoding="iso-8859-1"?>
<svg version="1.1" id="Layer_1" xmlns="http://www.w3.org/2000/svg" xmlns:xlink="http://www.w3.org/1999/xlink"
	viewBox="0 0 512 512" xml:space="preserve">
	<path style="fill:#83C9FF;" d="M428.408,407.51V512H135.837c-0.846,0-1.682-0.021-2.518-0.063c-0.063,0-0.115,0-0.167-0.01
	c-0.439-0.021-0.888-0.042-1.327-0.084c-0.752-0.052-1.494-0.125-2.236-0.219c-0.303-0.031-0.616-0.073-0.93-0.115
	c-0.585-0.084-1.17-0.167-1.745-0.272c-0.24-0.042-0.47-0.084-0.711-0.125c-0.293-0.052-0.585-0.115-0.878-0.178
	c-0.355-0.073-0.721-0.146-1.076-0.23c-0.115-0.021-0.219-0.052-0.334-0.073c-0.366-0.094-0.742-0.188-1.118-0.282
	c-0.92-0.23-1.829-0.491-2.727-0.784c-0.387-0.115-0.763-0.24-1.139-0.376c-0.345-0.115-0.69-0.24-1.034-0.366
	c-0.397-0.146-0.794-0.303-1.191-0.449c-0.784-0.313-1.567-0.648-2.341-0.993c-0.387-0.178-0.773-0.355-1.149-0.543
	c-0.387-0.178-0.763-0.366-1.139-0.564c-0.616-0.313-1.233-0.648-1.839-0.993c-0.303-0.167-0.606-0.345-0.909-0.522
	c-1.264-0.752-2.508-1.557-3.709-2.414c-0.345-0.24-0.679-0.491-1.024-0.742c-1.985-1.484-3.856-3.103-5.611-4.859
	c-0.282-0.272-0.554-0.554-0.825-0.836c-0.815-0.846-1.599-1.724-2.361-2.633c-0.251-0.293-0.502-0.596-0.742-0.909
	c-1.473-1.839-2.821-3.772-4.044-5.81c-0.596-0.993-1.16-2.006-1.693-3.041c-0.376-0.731-0.731-1.463-1.066-2.215
	c-0.157-0.345-0.313-0.69-0.46-1.034c-0.167-0.387-0.324-0.773-0.481-1.16c-0.146-0.366-0.293-0.742-0.428-1.118
	c-0.146-0.366-0.282-0.742-0.408-1.128c-0.136-0.376-0.261-0.752-0.387-1.139c-0.115-0.345-0.219-0.7-0.324-1.045
	c-0.084-0.261-0.157-0.533-0.23-0.794c-0.104-0.366-0.199-0.721-0.293-1.087c-0.073-0.272-0.136-0.554-0.209-0.825
	c-0.073-0.303-0.146-0.616-0.209-0.92c-0.094-0.428-0.188-0.857-0.272-1.296c-0.073-0.366-0.136-0.731-0.199-1.108
	c-0.209-1.212-0.376-2.435-0.502-3.668c-0.178-1.714-0.261-3.459-0.261-5.224c0-5.057,0.731-10.073,2.173-14.921
	c6.541-21.974,27.126-37.324,50.072-37.324H428.408z" />
	<rect x="250.775" y="407.51" style="fill:#49BAEC;" width="177.633" height="104.49" />
	<path style="fill:#00A5FF;" d="M131.657,0c-26.509,0-48.065,21.567-48.065,48.065v411.69c0,1.766,0.084,3.511,0.261,5.224
	c0.125,1.233,0.293,2.456,0.502,3.668c0.063,0.376,0.125,0.742,0.199,1.108c0.084,0.439,0.178,0.867,0.272,1.296
	c0.063,0.303,0.136,0.616,0.209,0.92c0.073,0.272,0.136,0.554,0.209,0.825c0.094,0.366,0.188,0.721,0.293,1.087
	c0.073,0.261,0.146,0.533,0.23,0.794c0.104,0.345,0.209,0.7,0.324,1.045c0.125,0.387,0.251,0.763,0.387,1.139
	c0.125,0.387,0.261,0.763,0.408,1.128c0.136,0.376,0.282,0.752,0.428,1.118c0.157,0.387,0.313,0.773,0.481,1.16
	c0.146,0.345,0.303,0.69,0.46,1.034c0.334,0.752,0.69,1.484,1.066,2.215c0.533,1.034,1.097,2.048,1.693,3.041
	c1.223,2.038,2.57,3.971,4.044,5.81c0.24,0.313,0.491,0.616,0.742,0.909c0.763,0.909,1.546,1.787,2.361,2.633
	c0.272,0.282,0.543,0.564,0.825,0.836c1.755,1.755,3.626,3.375,5.611,4.859c0.345,0.251,0.679,0.502,1.024,0.742
	c1.202,0.857,2.445,1.661,3.709,2.414c0.303,0.178,0.606,0.355,0.909,0.522c0.606,0.345,1.223,0.679,1.839,0.993
	c0.376,0.199,0.752,0.387,1.139,0.564c0.376,0.188,0.763,0.366,1.149,0.543c0.773,0.345,1.557,0.679,2.341,0.993
	c0.397,0.146,0.794,0.303,1.191,0.449c0.345,0.125,0.69,0.251,1.034,0.366c0.376,0.136,0.752,0.261,1.139,0.376
	c0.899,0.293,1.808,0.554,2.727,0.784c0.376,0.094,0.752,0.188,1.118,0.282c0.115,0.021,0.219,0.052,0.334,0.073
	c0.355,0.084,0.721,0.157,1.076,0.23c0.293,0.063,0.585,0.125,0.878,0.178c0.24,0.042,0.47,0.084,0.711,0.125
	c0.575,0.104,1.16,0.188,1.745,0.272c0.313,0.042,0.627,0.084,0.93,0.115c0.742,0.094,1.484,0.167,2.236,0.219
	c0.439,0.042,0.888,0.063,1.327,0.084c0.052,0.01,0.104,0.01,0.167,0.01c0.836,0.042,1.672,0.063,2.518,0.063h292.571V0H131.657z
	 M135.837,480.653c-11.525,0-20.898-9.373-20.898-20.898c0-1.975,0.282-3.95,0.836-5.851l0.063-0.199
	c2.633-8.746,10.856-14.848,19.999-14.848h261.224v41.796H135.837z" />
	<rect x="135.837" style="fill:#E1D18F;" width="31.347" height="438.857" />
	<polygon style="fill:#0087FF;" points="428.408,0 428.408,512 250.775,512 250.775,480.653 397.061,480.653 397.061,438.857 
	250.775,438.857 250.775,0 " />
	<rect x="213.159" y="62.694" style="fill:#E1D18F;" width="167.184" height="85.138" />
	<rect x="250.775" y="62.694" style="fill:#FFB64D;" width="129.567" height="85.138" />
</svg>