<?xml version="1.0" encoding="iso-8859-1"?>
<svg height="800px" width="800px" version="1.1" id="Layer_1" xmlns="http://www.w3.org/2000/svg"
    xmlns:xlink="http://www.w3.org/1999/xlink" viewBox="0 0 392.598 392.598" xml:space="preserve">
    <path style="fill:#FFFFFF;" d="M196.299,98.877c-64.259,0-125.026,34.521-171.83,97.422c46.804,62.901,107.572,97.422,171.83,97.422
	s125.026-34.521,171.83-97.422C321.325,133.398,260.622,98.877,196.299,98.877z M196.299,283.184
	c-47.903,0-86.885-38.917-86.885-86.885s38.982-86.885,86.885-86.885s86.885,38.982,86.885,86.885S244.202,283.184,196.299,283.184z
	" />
    <path style="fill:#56ACE0;" d="M196.299,131.265c-35.879,0-65.034,29.22-65.034,65.034s29.156,65.034,65.034,65.034
	s65.034-29.156,65.034-65.034S232.178,131.265,196.299,131.265z M196.299,238.19c-23.079,0-41.891-18.747-41.891-41.891
	s18.747-41.891,41.891-41.891s41.891,18.747,41.891,41.891S219.378,238.19,196.299,238.19z" />
    <path style="fill:#FFC10D;" d="M196.299,176.194c-11.055,0-20.105,9.051-20.105,20.105s9.051,20.105,20.105,20.105
	s20.105-9.051,20.105-20.105S207.354,176.194,196.299,176.194z" />
    <g>
        <path style="fill:#194F82;"
            d="M390.562,189.964c-51.588-72.792-120.63-112.873-194.263-112.873S53.624,117.172,2.036,189.964
		c-2.715,3.814-2.715,8.792,0,12.606c51.588,72.857,120.63,112.937,194.263,112.937s142.675-40.081,194.263-112.873
		C393.277,198.82,393.277,193.778,390.562,189.964z M196.299,293.721c-64.323,0-125.026-34.521-171.83-97.422
		c46.804-62.901,107.572-97.422,171.83-97.422s125.026,34.521,171.83,97.422C321.325,259.2,260.622,293.721,196.299,293.721z" />
        <path style="fill:#194F82;" d="M196.299,109.414c-47.903,0-86.885,38.917-86.885,86.885s38.982,86.885,86.885,86.885
		s86.885-38.982,86.885-86.885S244.202,109.414,196.299,109.414z M196.299,261.333c-35.879,0-65.034-29.22-65.034-65.034
		s29.156-65.034,65.034-65.034s65.034,29.156,65.034,65.034S232.178,261.333,196.299,261.333z" />
        <path style="fill:#194F82;"
            d="M196.299,154.408c-23.079,0-41.891,18.747-41.891,41.891s18.747,41.891,41.891,41.891
		s41.891-18.747,41.891-41.891C238.19,173.22,219.378,154.408,196.299,154.408z M196.299,216.404
		c-11.055,0-20.105-9.051-20.105-20.105s9.051-20.105,20.105-20.105s20.105,9.051,20.105,20.105S207.354,216.404,196.299,216.404z" />
    </g>
</svg>