<?xml version="1.0" encoding="iso-8859-1"?>
<svg height="800px" width="800px" version="1.1" id="Layer_1" xmlns="http://www.w3.org/2000/svg"
    xmlns:xlink="http://www.w3.org/1999/xlink" viewBox="0 0 392.424 392.424" xml:space="preserve">
    <g>
        <path style="fill:#FFFFFF;" d="M113.261,265.416c-17.907,0-34.392,3.426-49.907,10.408V42.062
		c15.386-8.792,31.741-13.123,49.907-13.123c23.661,0,47.321,6.982,72.21,14.933v235.442
		C161.875,271.816,137.697,265.416,113.261,265.416z" />
        <path style="fill:#FFFFFF;" d="M279.467,265.48c-24.501,0-48.614,6.465-72.21,13.834V43.872
		c24.889-7.952,48.614-14.933,72.21-14.933c18.166,0,34.521,4.331,49.907,13.123v233.826
		C313.859,268.907,297.309,265.48,279.467,265.48z" />
    </g>
    <path style="fill:#56ACE0;" d="M370.941,92.099v239.644h-0.065c-49.131-19.265-97.875-12.541-143.644-2.004
	c-4.719,1.099-8.081,5.107-8.404,9.891c-0.84,13.317-10.667,23.661-22.432,23.661c-11.766,0-21.527-10.343-22.432-23.661
	c-0.323-4.784-3.685-8.792-8.404-9.891c-45.77-10.602-94.578-17.325-143.644,2.004V92.163c6.4-2.909,12.929-5.366,19.653-7.305
	v209.39c0.453,9.956,10.667,12.994,16.873,9.18c16.873-10.925,34.78-16.162,54.949-16.162c25.988,0,52.105,8.404,79.774,17.39
	c2.263,0.711,4.461,0.711,6.659,0c0,0,0,0,0.065,0c27.539-8.921,53.721-17.39,79.644-17.39c20.17,0,38.077,5.236,54.949,16.162
	c7.952,5.107,16.873-1.552,16.873-9.18V84.794C357.947,86.798,364.541,89.19,370.941,92.099z" />
    <g>
        <path style="fill:#FFC10D;" d="M229.107,59.905c17.648-5.236,34.521-9.18,50.36-9.18c10.149,0,19.329,1.616,28.121,4.978v190.448
		c-9.051-1.681-18.36-2.65-28.121-2.65c-17.39,0-34.069,2.78-50.36,6.788V59.905z" />
        <path style="fill:#FFC10D;" d="M113.325,50.79c-10.149,0-19.329,1.616-28.121,4.913v53.851h42.602
		c6.012,0,10.925,4.848,10.925,10.925c0,6.012-4.848,10.925-10.925,10.925H85.139v22.497h20.752c6.012,0,10.925,4.848,10.925,10.925
		c0,6.012-4.848,10.925-10.925,10.925H85.075v70.529c9.05-1.681,18.36-2.651,28.121-2.651c17.39,0,34.069,2.78,50.36,6.788V59.905
		C146.036,54.604,129.164,50.79,113.325,50.79z" />
    </g>
    <g>
        <path style="fill:#194F82;" d="M247.596,89.577c18.941-6.4,30.966-7.758,41.632-4.396c4.784,1.487,9.568-2.004,10.796-7.887
		c1.228-5.883-1.681-11.766-6.4-13.317c-13.77-4.331-28.509-3.038-50.747,4.461c-4.719,1.616-7.499,7.564-6.206,13.382
		C237.834,87.638,242.683,91,247.596,89.577z" />
        <path style="fill:#194F82;" d="M247.596,136.899c18.941-6.4,30.966-7.758,41.632-4.396c4.784,1.487,9.568-2.004,10.796-7.887
		c1.228-5.883-1.681-11.766-6.4-13.317c-13.77-4.331-28.509-3.038-50.747,4.461c-4.719,1.616-7.499,7.564-6.206,13.382
		C237.834,135.089,242.683,138.45,247.596,136.899z" />
        <path style="fill:#194F82;" d="M247.596,184.349c18.941-6.4,30.966-7.758,41.632-4.396c4.784,1.487,9.568-2.004,10.796-7.887
		c1.228-5.883-1.681-11.766-6.4-13.317c-13.77-4.331-28.509-3.038-50.747,4.461c-4.719,1.616-7.499,7.564-6.206,13.382
		C237.834,182.41,242.683,185.836,247.596,184.349z" />
        <path style="fill:#194F82;" d="M300.089,219.517c1.228-5.883-1.681-11.766-6.4-13.317c-13.77-4.331-28.509-3.038-50.747,4.461
		c-4.719,1.616-7.499,7.564-6.206,13.382c1.099,5.689,5.947,9.115,10.925,7.628c18.941-6.4,30.966-7.758,41.632-4.396
		C294.077,228.891,298.861,225.335,300.089,219.517z" />
        <path style="fill:#194F82;" d="M386.715,75.678c-11.378-5.818-23.273-10.279-35.491-13.446V35.986c0-3.685-1.875-7.176-5.042-9.18
		c-20.493-13.188-42.279-19.653-66.78-19.653c-28.251,0-56.113,8.663-83.135,17.39c-26.958-8.727-54.885-17.39-83.071-17.39
		c-24.501,0-46.287,6.4-66.78,19.653c-3.103,2.004-5.042,5.495-5.042,9.18v26.182c-12.218,3.168-24.113,7.628-35.491,13.446
		C2.327,77.553,0,81.238,0,85.375v263.24c0.453,8.857,9.115,13.123,15.838,9.762c43.507-22.238,86.691-20.04,137.568-8.857
		c4.848,20.622,22.432,35.749,42.861,35.749s38.012-15.127,42.861-35.749c50.747-11.119,94.061-13.317,137.438,8.857
		c7.434,3.685,15.838-1.487,15.838-9.762V85.311C392.663,81.238,390.335,77.489,386.715,75.678z M207.321,43.872
		c24.889-7.952,48.614-14.933,72.145-14.933c18.166,0,34.521,4.331,49.907,13.123v233.826
		c-15.515-7.046-32.065-10.408-49.907-10.408c-24.501,0-48.614,6.465-72.145,13.834V43.872z M63.354,42.062
		c15.386-8.792,31.741-13.123,49.907-13.123c23.661,0,47.321,6.982,72.145,14.933v235.442
		c-23.596-7.434-47.774-13.834-72.145-13.834c-17.907,0-34.392,3.426-49.907,10.408V42.062z M370.877,331.743
		c-49.131-19.265-97.875-12.541-143.644-2.004c-4.719,1.099-8.145,5.107-8.404,9.891c-0.84,13.317-10.667,23.661-22.432,23.661
		c-11.766,0-21.527-10.343-22.432-23.661c-0.323-4.784-3.685-8.792-8.404-9.891c-45.77-10.602-94.578-17.325-143.644,2.004V92.163
		c6.4-2.909,12.929-5.301,19.653-7.37v209.39c0.453,9.956,10.667,12.994,16.873,9.18c16.873-10.925,34.78-16.162,54.949-16.162
		c25.988,0,52.105,8.404,79.774,17.39c2.263,0.711,4.461,0.711,6.659,0c0,0,0,0,0.065,0c27.669-8.986,53.786-17.39,79.774-17.39
		c20.17,0,38.077,5.236,54.949,16.162c7.952,5.107,16.873-1.552,16.873-9.18V84.729c6.659,2.004,13.188,4.396,19.653,7.37v239.644
		L370.877,331.743L370.877,331.743z" />
    </g>
</svg>