<?xml version="1.0" encoding="iso-8859-1"?>
<svg height="800px" width="800px" version="1.1" id="Layer_1" xmlns="http://www.w3.org/2000/svg"
    xmlns:xlink="http://www.w3.org/1999/xlink" viewBox="0 0 392.593 392.593" xml:space="preserve">
    <path style="fill:#FFFFFF;" d="M21.893,312.436H198.83c-15.58-14.675-25.406-35.491-25.406-58.57
	c0-37.56,25.794-68.978,60.574-77.899v-77.77h-65.487c-6.012,0-10.925-4.848-10.925-10.925V21.851H21.893V312.436z" />
    <g>
        <polygon style="fill:#FFC10D;" points="218.612,76.477 179.436,37.301 179.436,76.477 	" />
        <path style="fill:#FFC10D;" d="M321.464,297.438c-3.103,4.784-6.659,9.18-10.731,13.317c-4.073,4.073-8.469,7.628-13.317,10.731
		l44.283,44.283c6.4,6.4,17.648,6.4,24.048,0c6.206-6.853,6.982-16.679,0-24.048L321.464,297.438z" />
    </g>
    <g>
        <path style="fill:#194F82;" d="M49.82,84.428h68.525c6.012,0,10.925-4.848,10.925-10.925c0-6.012-4.848-10.925-10.925-10.925H49.82
		c-6.012,0-10.925,4.848-10.925,10.925C38.895,79.58,43.743,84.428,49.82,84.428z" />
        <path style="fill:#194F82;" d="M49.82,142.352h155.345c6.012,0,10.925-4.848,10.925-10.925c0-6.012-4.848-10.925-10.925-10.925
		H49.82c-6.012,0-10.925,4.848-10.925,10.925C38.895,137.438,43.743,142.352,49.82,142.352z" />
        <path style="fill:#194F82;" d="M152.543,178.36H49.755c-6.012,0-10.925,4.848-10.925,10.925c0,6.012,4.848,10.925,10.925,10.925
		h102.788c6.012,0,10.925-4.848,10.925-10.925S158.62,178.36,152.543,178.36z" />
        <path style="fill:#194F82;" d="M118.345,236.218H49.82c-6.012,0-10.925,4.848-10.925,10.925s4.848,10.925,10.925,10.925h68.525
		c6.012,0,10.925-4.848,10.925-10.925S124.357,236.218,118.345,236.218z" />
    </g>
    <circle style="fill:#FFFFFF;" cx="253.973" cy="253.867" r="59.281" />
    <circle style="fill:#56ACE0;" cx="253.973" cy="253.867" r="36.396" />
    <path style="fill:#194F82;" d="M381.133,326.141l-50.101-50.101c2.069-7.111,3.232-14.61,3.232-22.303
	c0-43.766-34.974-79.257-78.481-80.356V87.337c0-2.844-1.164-5.624-3.168-7.758L176.204,3.168C174.2,1.164,171.42,0,168.446,0
	H11.032C5.02,0,0.107,4.848,0.107,10.925v312.436c0,6.012,4.848,10.925,10.925,10.925c0,0,240.485,0.065,242.877,0.065
	c7.822,0,15.321-1.164,22.432-3.232l49.972,49.972c16.743,16.291,40.857,14.352,54.885,0
	C396.26,365.964,396.26,341.333,381.133,326.141z M179.436,37.236l39.176,39.176h-39.176V37.236z M21.893,312.436V21.851H157.65
	v65.422c0,6.012,4.848,10.925,10.925,10.925h65.552v77.705c-34.78,8.857-60.574,40.339-60.574,77.899
	c0,23.079,9.826,43.895,25.406,58.57H21.893V312.436z M253.973,313.083c-32.711,0-59.281-26.505-59.281-59.281
	s26.505-59.281,59.281-59.281s59.281,26.505,59.281,59.281S286.62,313.083,253.973,313.083z M365.747,365.64
	c-6.4,6.4-17.648,6.4-24.048,0l-44.283-44.283c9.568-6.206,17.778-14.352,24.048-24.048l0,0l44.283,44.283
	C372.341,348.25,372.341,358.982,365.747,365.64z" />
</svg>